PathFileType	4	(X/Y/Z)	/Users/itak/Documents/Research/Walk-IL/dataset/trc/00508_00183.trc
DataRate	CameraRate	NumFrames	NumMarkers	Units	OrigDataRate	OrigDataStartFrame	OrigNumFrames
100.000000	100.000000	4	54	mm	100.000000	115	461
Frame#	Time	RPSI			LPSI			L3			STRN			T10			C7			CLAV			RBAK			LBAK			LSHO			LUPA			LAEL			LAOL			LWTS			LWPS			LFRA			LIFD			LHPS			LHTS			RSHO			RUPA			RAEL			RAOL			RWTS			RWPS			RFRA			RIFD			RHTS			RHPS			RBHD			LFHD			RFHD			LBHD			LHIP			RHIP			RASI			LASI			LKNE			LTHI			LANK			LTIP			LTOE			LMT1			LMT5			LHEE			RKNE			RTHI			RANK			RTIP			RTOE			RMT1			RMT5			RHEE			*53			
		X1	Y1	Z1	X2	Y2	Z2	X3	Y3	Z3	X4	Y4	Z4	X5	Y5	Z5	X6	Y6	Z6	X7	Y7	Z7	X8	Y8	Z8	X9	Y9	Z9	X10	Y10	Z10	X11	Y11	Z11	X12	Y12	Z12	X13	Y13	Z13	X14	Y14	Z14	X15	Y15	Z15	X16	Y16	Z16	X17	Y17	Z17	X18	Y18	Z18	X19	Y19	Z19	X20	Y20	Z20	X21	Y21	Z21	X22	Y22	Z22	X23	Y23	Z23	X24	Y24	Z24	X25	Y25	Z25	X26	Y26	Z26	X27	Y27	Z27	X28	Y28	Z28	X29	Y29	Z29	X30	Y30	Z30	X31	Y31	Z31	X32	Y32	Z32	X33	Y33	Z33	X34	Y34	Z34	X35	Y35	Z35	X36	Y36	Z36	X37	Y37	Z37	X38	Y38	Z38	X39	Y39	Z39	X40	Y40	Z40	X41	Y41	Z41	X42	Y42	Z42	X43	Y43	Z43	X44	Y44	Z44	X45	Y45	Z45	X46	Y46	Z46	X47	Y47	Z47	X48	Y48	Z48	X49	Y49	Z49	X50	Y50	Z50	X51	Y51	Z51	X52	Y52	Z52	X53	Y53	Z53	X54	Y54	Z54	

116	1.15	-1154.0146484375	972.7755737304688	-495.5731811523438	-1078.29443359375	974.6195678710938	-593.9439697265625	-1126.097290039062	1034.868408203125	-553.2960205078125	-934.421630859375	1196.512084960938	-433.9447326660156	-1141.782592773438	1142.435913085938	-557.2933349609375	-1097.738159179688	1370.540893554688	-526.6692504882812	-964.002197265625	1291.95263671875	-451.512451171875	-1183.560302734375	1249.0400390625	-478.0444641113281	-1076.408203125	1317.262329101562	-613.8615112304688	-958.53466796875	1364.060180664062	-631.3239135742188	-945.115478515625	1239.760375976562	-695.2392578125	-937.1356201171875	1030.192504882812	-722.1728515625	-1031.565795898438	1024.092895507812	-690.6122436523438	-878.3389892578125	841.6272583007812	-652.3500366210938	-931.6641845703125	803.8116455078125	-720.2428588867188	-924.5969848632812	945.3875732421875	-718.4757690429688	-877.569580078125	686.65185546875	-632.762451171875	-909.9923095703125	750.0350341796875	-704.5228881835938	-860.4677734375	763.93115234375	-663.474853515625	-1124.298706054688	1362.82958984375	-371.2069091796875	-1169.772827148438	1296.190795898438	-331.727294921875	-1192.8330078125	1027.827392578125	-295.4090270996094	-1220.839965820312	1012.294677734375	-353.5123291015625	-1082.656860351562	828.4108276367188	-277.4740295410156	-1170.0400390625	804.2578735351562	-267.4423828125	-1192.707275390625	973.5126342773438	-287.4724731445312	-1081.029663085938	667.4432373046875	-279.9089660644531	-1078.861694335938	733.46240234375	-251.9462280273438	-1148.921508789062	731.0448608398438	-259.8788452148438	-1117.677612304688	1514.58447265625	-444.6884765625	-942.3093872070312	1597.443603515625	-496.193359375	-1015.434020996094	1590.14453125	-391.7996520996094	-1037.863891601562	1517.107543945312	-583.2922973632812	-916.3634033203125	896.5867309570312	-639.6244506835938	-1147.31396484375	867.0233154296875	-337.9372863769531	-1025.673583984375	906.597412109375	-329.8186645507812	-883.2782592773438	922.3363037109375	-525.9454345703125	-954.3944091796875	473.4152221679688	-630.1199340820312	-921.0338134765625	630.2183837890625	-627.7717895507812	-1042.941284179688	46.54397583007812	-678.1749267578125	-985.7362670898438	330.0729064941406	-659.1851196289062	-910.9444580078125	39.16464996337891	-519.111328125	-994.0567626953125	42.93021392822266	-535.0975341796875	-945.1607055664062	45.89730834960938	-625.0233154296875	-1116.812744140625	37.44530868530273	-654.4343872070312	-1149.896484375	480.5124816894531	-364.6399841308594	-1138.170532226562	741.024658203125	-322.4931030273438	-1211.6572265625	51.62363052368164	-428.0511474609375	-1150.115600585938	337.3233337402344	-380.453125	-1021.348815917969	43.49336624145508	-352.6484985351562	-1054.691040039062	45.71611404418945	-421.5287475585938	-1124.902954101562	48.61287689208984	-354.1332397460938	-1230.797241210938	39.05324935913086	-495.9512329101562	nan	nan	nan	
117	1.16	-1153.167114257812	972.7622680664062	-495.4442138671875	-1077.403686523438	974.6322021484375	-593.74169921875	-1125.129516601562	1034.945678710938	-553.127685546875	-933.3295288085938	1196.332641601562	-433.5040588378906	-1140.728759765625	1142.50341796875	-557.0956420898438	-1096.388916015625	1370.598022460938	-526.3234252929688	-962.7877197265625	1291.794921875	-451.0801696777344	-1182.42333984375	1249.117553710938	-477.7891845703125	-1075.092163085938	1317.344116210938	-613.539306640625	-957.1629028320312	1364.01220703125	-630.8544311523438	-943.8021240234375	1239.717163085938	-694.7845458984375	-935.9989624023438	1030.141357421875	-721.887939453125	-1030.45361328125	1024.12890625	-690.348876953125	-877.4078369140625	841.5357666015625	-652.048583984375	-930.7735595703125	803.7776489257812	-720.0021362304688	-923.5455932617188	945.3657836914062	-718.15966796875	-876.6548461914062	686.5421142578125	-632.5388793945312	-909.1270751953125	750.041748046875	-704.3108520507812	-859.7276000976562	763.7086791992188	-663.220703125	-1123.0859375	1362.773681640625	-370.843017578125	-1168.52392578125	1296.110595703125	-331.2835693359375	-1191.25732421875	1027.742553710938	-294.4208679199219	-1219.405883789062	1012.093200683594	-352.4564514160156	-1080.991455078125	828.110595703125	-276.5953369140625	-1168.345703125	804.017578125	-266.6641540527344	-1191.067626953125	973.4442138671875	-286.4359436035156	-1079.558349609375	667.1097412109375	-279.6290893554688	-1077.270263671875	733.0347900390625	-251.4501190185547	-1147.33984375	730.7464599609375	-259.3345642089844	-1116.458129882812	1514.463012695312	-444.3345031738281	-941.061767578125	1597.404541015625	-495.8138122558594	-1014.264465332031	1590.096069335938	-391.4746398925781	-1036.5546875	1516.948120117188	-582.9130859375	-915.4054565429688	896.56103515625	-639.3134155273438	-1146.758422851562	867.0283813476562	-337.6705322265625	-1025.077758789062	906.4795532226562	-329.5980529785156	-882.4795532226562	922.1839599609375	-525.5967407226562	-953.7413330078125	473.4274597167969	-629.91796875	-920.274658203125	630.1793212890625	-627.4736938476562	-1042.939208984375	46.56135559082031	-678.180419921875	-985.1279907226562	330.0238647460938	-659.0313110351562	-910.9517822265625	39.16973114013672	-519.1256103515625	-994.06884765625	42.93545532226562	-535.0765380859375	-945.1574096679688	45.90465927124023	-625.0131225585938	-1116.770385742188	37.39093017578125	-654.4552612304688	-1149.383911132812	480.4256896972656	-364.3426513671875	-1137.609619140625	740.9241333007812	-322.3080749511719	-1211.696899414062	51.61020660400391	-428.0260925292969	-1149.659790039062	337.2165832519531	-380.3070373535156	-1021.491577148438	43.6581916809082	-352.48974609375	-1054.682373046875	45.72990798950195	-421.4796447753906	-1124.96337890625	48.63152313232422	-354.1054077148438	-1230.83203125	38.99801254272461	-495.9559020996094	nan	nan	nan	
118	1.17	-1152.303588867188	972.740966796875	-495.2978210449219	-1076.49560546875	974.6443481445312	-593.52294921875	-1124.12939453125	1035.024780273438	-552.951904296875	-932.1945190429688	1196.131713867188	-433.0616455078125	-1139.627807617188	1142.574829101562	-556.87939453125	-1094.991088867188	1370.64892578125	-525.96044921875	-961.5300903320312	1291.621948242188	-450.6349182128906	-1181.238037109375	1249.199951171875	-477.5304260253906	-1073.726684570312	1317.42333984375	-613.1895141601562	-955.7498168945312	1363.954711914062	-630.37158203125	-942.451416015625	1239.656372070312	-694.314453125	-934.8173217773438	1030.081665039062	-721.598876953125	-1029.339111328125	1024.18017578125	-690.0791625976562	-876.4370727539062	841.4050903320312	-651.733154296875	-929.88525390625	803.7780151367188	-719.7660522460938	-922.461669921875	945.333984375	-717.8370361328125	-875.7726440429688	686.4177856445312	-632.3768310546875	-908.21875	750.0166625976562	-704.0989990234375	-858.975341796875	763.4573364257812	-662.9657592773438	-1121.814453125	1362.711791992188	-370.4637756347656	-1167.212768554688	1296.0224609375	-330.8267822265625	-1189.550170898438	1027.646118164062	-293.4135437011719	-1217.85546875	1011.88525390625	-351.3805541992188	-1079.190795898438	827.8202514648438	-275.68896484375	-1166.51611328125	803.8094482421875	-265.8065795898438	-1189.287353515625	973.3665771484375	-285.37744140625	-1077.985595703125	666.7902221679688	-279.17529296875	-1075.546264648438	732.648193359375	-250.8477478027344	-1145.637939453125	730.5022583007812	-258.6542663574219	-1115.172485351562	1514.334838867188	-443.9764099121094	-939.7386474609375	1597.352783203125	-495.4264526367188	-1013.015808105469	1590.040893554688	-391.1473999023438	-1035.178466796875	1516.767578125	-582.526611328125	-914.4010009765625	896.5117797851562	-639.0199584960938	-1146.220947265625	867.0333251953125	-337.4602661132812	-1024.445068359375	906.3504028320312	-329.3880004882812	-881.66552734375	921.9968872070312	-525.2391967773438	-953.1215209960938	473.4055786132812	-629.7230834960938	-919.48681640625	630.1155395507812	-627.1935424804688	-1042.936767578125	46.57942962646484	-678.1844482421875	-984.5333862304688	329.9706115722656	-658.8821411132812	-910.9606323242188	39.17928314208984	-519.1480102539062	-994.0825805664062	42.93891143798828	-535.0523681640625	-945.154541015625	45.91259765625	-625.0027465820312	-1116.739501953125	37.34712982177734	-654.4796142578125	-1148.866577148438	480.326171875	-364.0447998046875	-1137.011962890625	740.8120727539062	-322.1333618164062	-1211.739135742188	51.59722900390625	-428.0007934570312	-1149.196533203125	337.1166076660156	-380.1611938476562	-1021.651550292969	43.82870101928711	-352.3182067871094	-1054.67333984375	45.74211502075195	-421.4259033203125	-1125.033813476562	48.64941024780273	-354.0757446289062	-1230.8681640625	38.94052505493164	-495.96142578125	nan	nan	nan	
119	1.18	-1151.417724609375	972.7134399414062	-495.1392822265625	-1075.555541992188	974.6478271484375	-593.2861328125	-1123.098266601562	1035.10009765625	-552.7593994140625	-931.01171875	1195.91015625	-432.6219482421875	-1138.479125976562	1142.6484375	-556.63818359375	-1093.5498046875	1370.688720703125	-525.5702514648438	-960.2299194335938	1291.433715820312	-450.1746826171875	-1180.002197265625	1249.2841796875	-477.2615661621094	-1072.31103515625	1317.492065429688	-612.8139038085938	-954.293212890625	1363.88720703125	-629.8741455078125	-941.0631713867188	1239.577880859375	-693.8336791992188	-933.598876953125	1030.01513671875	-721.3011474609375	-1028.2255859375	1024.244750976562	-689.810791015625	-875.424072265625	841.2357177734375	-651.4002075195312	-928.9695434570312	803.802490234375	-719.5365600585938	-921.34619140625	945.2892456054688	-717.5116577148438	-874.9381713867188	686.27490234375	-632.2799682617188	-907.2598876953125	749.956298828125	-703.889404296875	-858.185791015625	763.1984252929688	-662.7001953125	-1120.480102539062	1362.64404296875	-370.067626953125	-1165.84375	1295.925415039062	-330.3569030761719	-1187.7099609375	1027.541748046875	-292.3924865722656	-1216.192626953125	1011.674255371094	-350.2822265625	-1077.244018554688	827.5530395507812	-274.7683715820312	-1164.542114257812	803.6417846679688	-264.8663330078125	-1187.361450195312	973.2804565429688	-284.3062438964844	-1076.28857421875	666.499267578125	-278.5369567871094	-1073.664916992188	732.3196411132812	-250.1484832763672	-1143.806030273438	730.322998046875	-257.8131103515625	-1113.817016601562	1514.201171875	-443.6168518066406	-938.3453979492188	1597.282104492188	-495.028564453125	-1011.684936523438	1589.978515625	-390.8137512207031	-1033.73388671875	1516.571166992188	-582.1287841796875	-913.3585205078125	896.442138671875	-638.753173828125	-1145.6953125	867.0336303710938	-337.3081970214844	-1023.768676757812	906.208984375	-329.1915588378906	-880.8258056640625	921.7730102539062	-524.8781127929688	-952.53564453125	473.3421020507812	-629.5237426757812	-918.6818237304688	630.0186157226562	-626.9267578125	-1042.933471679688	46.59933090209961	-678.1861572265625	-983.962890625	329.9060974121094	-658.736572265625	-910.9697265625	39.19524002075195	-519.1777954101562	-994.0977172851562	42.94155883789062	-535.0254516601562	-945.1537475585938	45.92219543457031	-624.9912109375	-1116.723510742188	37.3175048828125	-654.5076293945312	-1148.345581054688	480.2177429199219	-363.7601318359375	-1136.370483398438	740.6871948242188	-321.9719848632812	-1211.78173828125	51.58565521240234	-427.9785461425781	-1148.729858398438	337.0221862792969	-380.0162658691406	-1021.822814941406	43.99905395507812	-352.1418151855469	-1054.664184570312	45.75315093994141	-421.3697509765625	-1125.11328125	48.66707992553711	-354.0468444824219	-1230.90576171875	38.88172912597656	-495.9666137695312	nan	nan	nan	
